<svg width="24" height="24" viewBox="0 0 24 24" fill="none" xmlns="http://www.w3.org/2000/svg">
<path d="M2 7.75V20.5C2 21.3284 2.67157 22 3.5 22H12.5C13.3284 22 14 21.3284 14 20.5V10.8713C14 10.4735 13.842 10.092 13.5607 9.81066L10.4393 6.68934C10.158 6.40804 9.7765 6.25 9.37868 6.25H3.5C2.67157 6.25 2 6.92157 2 7.75Z" stroke="currentColor" stroke-width="2" stroke-linecap="square"/>
<path d="M14 17.75H20.5C21.3284 17.75 22 17.0784 22 16.25V6.62132C22 6.2235 21.842 5.84197 21.5607 5.56066L18.4393 2.43934C18.158 2.15804 17.7765 2 17.3787 2H11.5C10.6716 2 10 2.67157 10 3.5V6.25" stroke="currentColor" stroke-width="2"/>
</svg>
