<svg width="24" height="24" viewBox="0 0 24 24" fill="none" xmlns="http://www.w3.org/2000/svg">
<path d="M10.7501 14L12.5179 14C12.7168 14 12.9075 13.921 13.0482 13.7803L20.705 6.12345C20.9979 5.83055 20.9979 5.35568 20.705 5.06279L18.9373 3.29502C18.6444 3.00213 18.1695 3.00213 17.8766 3.29502L10.2198 10.9519C10.0791 11.0925 10.0001 11.2833 10.0001 11.4822L10.0001 13.25C10.0001 13.6642 10.3359 14 10.7501 14Z" stroke="currentColor" stroke-width="2" stroke-linecap="square" stroke-linejoin="round"/>
<path d="M20.5 14V19C20.5 19.8284 19.8284 20.5 19 20.5H5C4.17157 20.5 3.5 19.8284 3.5 19V5C3.5 4.17157 4.17157 3.5 5 3.5H10" stroke="currentColor" stroke-width="2" stroke-linecap="round"/>
</svg>
