<svg width="24" height="24" viewBox="0 0 24 24" fill="none" xmlns="http://www.w3.org/2000/svg">
<path d="M3 4.5L3 19.5C3 20.3284 3.67158 21 4.5 21L19.5 21C20.3284 21 21 20.3284 21 19.5L21 6.45465C21 6.05683 20.842 5.6753 20.5607 5.39399L18.606 3.43934C18.3247 3.15803 17.9432 3 17.5453 3L4.5 3C3.67157 3 3 3.67157 3 4.5Z" stroke="#282827" stroke-width="2" stroke-linecap="square" stroke-linejoin="round"/>
<path d="M17 21L17 13.5C17 12.6716 16.3284 12 15.5 12L8.5 12C7.67157 12 7 12.6716 7 13.5L7 21" stroke="#282827" stroke-width="2" stroke-linejoin="round"/>
<path d="M15 3L15 6.5C15 7.32843 14.3284 8 13.5 8L10.5 8C9.67157 8 9 7.32843 9 6.5L9 3" stroke="#282827" stroke-width="2" stroke-linejoin="round"/>
</svg>
