<svg width="24" height="24" viewBox="0 0 24 24" fill="none" xmlns="http://www.w3.org/2000/svg">
<path d="M15.5 8.5V7.5C15.5 6.39543 16.3954 5.5 17.5 5.5C18.6046 5.5 19.5 6.39543 19.5 7.5V14.0147C19.5 15.606 18.8679 17.1321 17.7426 18.2574L17.2574 18.7426C16.1321 19.8679 14.606 20.5 13.0147 20.5H10.4853C8.89398 20.5 7.36786 19.8679 6.24264 18.7426L5.25736 17.7574C4.13214 16.6321 3.5 15.106 3.5 13.5147V10.9142C3.5 10.0087 3.85971 9.14029 4.5 8.5C5.14029 7.85971 6.00871 7.5 6.91421 7.5H7.5V12" stroke="currentColor" stroke-width="2" stroke-linecap="round"/>
<path d="M7.5 10V6.5C7.5 5.39543 8.39543 4.5 9.5 4.5C10.6046 4.5 11.5 5.39543 11.5 6.5V7" stroke="currentColor" stroke-width="2" stroke-linecap="round"/>
<path d="M15.5 9.5V5.5C15.5 4.39543 14.6046 3.5 13.5 3.5C12.3954 3.5 11.5 4.39543 11.5 5.5V9" stroke="currentColor" stroke-width="2" stroke-linecap="round"/>
</svg>
