<svg width="24" height="24" viewBox="0 0 24 24" fill="none" xmlns="http://www.w3.org/2000/svg">
<path d="M11.5002 9V5.5C11.5002 4.39543 10.6048 3.5 9.50021 3.5C8.39564 3.5 7.50021 4.39543 7.50021 5.5V15L5.50021 13C4.74082 12.2406 3.5096 12.2406 2.75021 13C1.99082 13.7594 1.99082 14.9906 2.75021 15.75L7.24285 20.2426C8.36807 21.3679 9.89419 22 11.4855 22H13.5253C15.11 22 16.6297 21.3705 17.7502 20.25C18.8707 19.1295 19.5002 17.6098 19.5002 16.0251V6.5C19.5002 5.39543 18.6048 4.5 17.5002 4.5C16.3956 4.5 15.5002 5.39543 15.5002 6.5V9" stroke="currentColor" stroke-width="2" stroke-linejoin="round"/>
<path d="M11.5 12V4C11.5 2.89543 12.3954 2 13.5 2C14.6046 2 15.5 2.89543 15.5 4V12" stroke="currentColor" stroke-width="2" stroke-linecap="round"/>
</svg>
