<svg width="24" height="24" viewBox="0 0 24 24" fill="none" xmlns="http://www.w3.org/2000/svg">
<path d="M12 17.25V16.75M12 13.5C12 12.6478 12.4501 11.859 13.1838 11.4255L13.7323 11.1014C14.3701 10.7245 14.7838 10.06 14.8407 9.32138C14.9309 8.14895 14.1107 7.10178 12.9508 6.90846L12.4797 6.82996C12.1623 6.77705 11.8381 6.77943 11.5215 6.837L10.9893 6.93377C9.95059 7.12262 9.1493 7.95492 9 9M22 12C22 17.5228 17.5228 22 12 22C6.47715 22 2 17.5228 2 12C2 6.47715 6.47715 2 12 2C17.5228 2 22 6.47715 22 12Z" stroke="currentColor" stroke-width="2" stroke-linecap="round"/>
</svg>
