<svg width="24" height="24" viewBox="0 0 24 24" fill="none" xmlns="http://www.w3.org/2000/svg">
<path d="M3.5 11.1213V19C3.5 19.8284 4.17157 20.5 5 20.5H8.5C9.32843 20.5 10 19.8284 10 19V14.75C10 14.3358 10.3358 14 10.75 14H13.25C13.6642 14 14 14.3358 14 14.75V19C14 19.8284 14.6716 20.5 15.5 20.5H19C19.8284 20.5 20.5 19.8284 20.5 19V11.1213C20.5 10.7235 20.342 10.342 20.0607 10.0607L13.0607 3.06066C12.4749 2.47487 11.5251 2.47487 10.9393 3.06066L3.93934 10.0607C3.65804 10.342 3.5 10.7235 3.5 11.1213Z" stroke="#282827" stroke-width="2"/>
</svg>
