<svg width="24" height="24" viewBox="0 0 24 24" fill="none" xmlns="http://www.w3.org/2000/svg">
<path d="M6 22H18C18.8284 22 19.5 21.3284 19.5 20.5V17.3713C19.5 16.9735 19.342 16.592 19.0607 16.3107L15.3107 12.5607C14.7249 11.9749 14.7249 11.0251 15.3107 10.4393L19.0607 6.68934C19.342 6.40804 19.5 6.0265 19.5 5.62868V3.5C19.5 2.67157 18.8284 2 18 2H6C5.17157 2 4.5 2.67157 4.5 3.5V5.62868C4.5 6.0265 4.65804 6.40804 4.93934 6.68934L8.68934 10.4393C9.27513 11.0251 9.27513 11.9749 8.68934 12.5607L4.93934 16.3107C4.65804 16.592 4.5 16.9735 4.5 17.3713V20.5C4.5 21.3284 5.17157 22 6 22Z" stroke="#282827" stroke-width="2" stroke-linecap="square"/>
</svg>
