<svg width="24" height="24" viewBox="0 0 24 24" fill="none" xmlns="http://www.w3.org/2000/svg">
<path d="M2.63547 6.13546C2.26476 5.76475 1.63965 5.88206 1.50049 6.38752C1.33721 6.98054 1.25 7.60509 1.25 8.25C1.25 12.116 4.38401 15.25 8.25 15.25C8.91136 15.25 9.5513 15.1583 10.1578 14.9869C10.7585 14.8171 11.4235 14.9235 11.8649 15.3649L17.9999 21.5C18.9664 22.4665 20.5334 22.4665 21.4999 21.5C22.4664 20.5335 22.4664 18.9665 21.4999 18L15.3649 11.865C14.9235 11.4236 14.8171 10.7586 14.9868 10.1579C15.1583 9.55137 15.25 8.9114 15.25 8.25C15.25 4.38401 12.116 1.25 8.25 1.25C7.60509 1.25 6.98056 1.33721 6.38754 1.50048C5.88208 1.63965 5.76476 2.26475 6.13547 2.63546L9.38449 5.88447C9.76511 6.2651 9.9126 6.82049 9.77097 7.33981L9.47554 8.42306C9.33579 8.93547 8.93548 9.33578 8.42307 9.47553L7.33982 9.77096C6.8205 9.91259 6.26511 9.7651 5.88448 9.38447L2.63547 6.13546Z" stroke="currentColor" stroke-width="2"/>
</svg>
