<?xml version="1.0" encoding="utf-8"?><svg xmlns="http://www.w3.org/2000/svg" xmlns:xlink="http://www.w3.org/1999/xlink"><symbol fill="none" viewBox="0 0 24 24" id="3-dots-horizontal" xmlns="http://www.w3.org/2000/svg"><path d="M5 11.975v.05M12 11.975v.05M19 11.975v.05" stroke="currentColor" stroke-width="3" stroke-linecap="round"/></symbol><symbol fill="none" viewBox="0 0 24 24" id="3-dots-vertical" xmlns="http://www.w3.org/2000/svg"><path d="M11.975 19h.05M11.975 12h.05M11.975 5h.05" stroke="currentColor" stroke-width="3" stroke-linecap="round"/></symbol><symbol fill="none" viewBox="0 0 24 24" id="alarm" xmlns="http://www.w3.org/2000/svg"><ellipse cx="12" cy="12.875" rx="9.25" ry="9.125" stroke="currentColor" stroke-width="2"/><path d="m22.25 5.25-2.5-2.5M1.75 5.25l2.5-2.5M11.75 10.25v2.129c0 .398.158.779.44 1.06l2.06 2.061" stroke="currentColor" stroke-width="2" stroke-linecap="round"/></symbol><symbol fill="none" viewBox="0 0 24 24" id="alert-circle" xmlns="http://www.w3.org/2000/svg"><circle cx="10" cy="10" r="10" transform="matrix(1 0 0 -1 2 22)" stroke="currentColor" stroke-width="2"/><path d="M12 7.5V12M12 16v.5" stroke="currentColor" stroke-width="2.25" stroke-linecap="round"/></symbol><symbol fill="none" viewBox="0 0 24 24" id="alert-square" xmlns="http://www.w3.org/2000/svg"><rect x="3.5" y="3.5" width="17" height="17" rx="1.5" stroke="currentColor" stroke-width="2"/><path d="M12 7.75V12M12 16v.25" stroke="currentColor" stroke-width="2.25" stroke-linecap="round"/></symbol><symbol fill="none" viewBox="0 0 24 24" id="alert-triangle" xmlns="http://www.w3.org/2000/svg"><path d="M12 9v3M12 15.75V16" stroke="currentColor" stroke-width="2.125" stroke-linecap="round"/><path d="M3.854 20h16.322a1.5 1.5 0 0 0 1.305-2.24L13.415 3.527a1.5 1.5 0 0 0-2.603-.013L2.557 17.747A1.5 1.5 0 0 0 3.853 20Z" stroke="currentColor" stroke-width="2" stroke-linejoin="round"/></symbol><symbol fill="none" viewBox="0 0 24 24" id="archivebox" xmlns="http://www.w3.org/2000/svg"><path d="M3.5 8v11A1.5 1.5 0 0 0 5 20.5h14a1.5 1.5 0 0 0 1.5-1.5V8M2 5a1.5 1.5 0 0 1 1.5-1.5h17A1.5 1.5 0 0 1 22 5v1.5A1.5 1.5 0 0 1 20.5 8h-17A1.5 1.5 0 0 1 2 6.5V5ZM10 12h4" stroke="currentColor" stroke-width="2" stroke-linecap="round" stroke-linejoin="round"/></symbol><symbol fill="none" viewBox="0 0 24 24" id="bookmark" xmlns="http://www.w3.org/2000/svg"><path d="M19.5 3.5v18.086c0 .89-1.077 1.337-1.707.707L13.06 17.56a1.5 1.5 0 0 0-2.122 0l-4.732 4.732c-.63.63-1.707.184-1.707-.707V3.5A1.5 1.5 0 0 1 6 2h12a1.5 1.5 0 0 1 1.5 1.5Z" stroke="currentColor" stroke-width="2" stroke-linejoin="round"/></symbol><symbol fill="none" viewBox="0 0 24 24" id="burger-menu" xmlns="http://www.w3.org/2000/svg"><path d="M2 12h20M2 5.5h20M2 18.5h20" stroke="currentColor" stroke-width="2" stroke-linecap="round"/></symbol><symbol fill="none" viewBox="0 0 24 24" id="cancel" xmlns="http://www.w3.org/2000/svg"><circle cx="12" cy="12" r="10" stroke="currentColor" stroke-width="2"/><path d="M4.93 19.07 19.07 4.93" stroke="currentColor" stroke-width="2.125"/></symbol><symbol fill="none" viewBox="0 0 24 24" id="check-circle" xmlns="http://www.w3.org/2000/svg"><circle cx="12" cy="12" r="10" stroke="currentColor" stroke-width="2"/><path d="m7.75 12.5 2.22 2.22a.75.75 0 0 0 1.06 0l5.47-5.47" stroke="currentColor" stroke-width="2" stroke-linecap="round"/></symbol><symbol fill="none" viewBox="0 0 24 24" id="check-square" xmlns="http://www.w3.org/2000/svg"><rect x="3.5" y="3.5" width="17" height="17" rx="1.5" stroke="currentColor" stroke-width="2"/><path d="m7.75 12.5 2.22 2.22a.75.75 0 0 0 1.06 0l5.47-5.47" stroke="currentColor" stroke-width="2" stroke-linecap="round"/></symbol><symbol fill="none" viewBox="0 0 24 24" id="checkmark" xmlns="http://www.w3.org/2000/svg"><path d="m3.5 12.25 4.44 4.44a1.5 1.5 0 0 0 2.12 0L20.5 6.25" stroke="currentColor" stroke-width="2.125" stroke-linecap="round" stroke-linejoin="round"/></symbol><symbol fill="none" viewBox="0 0 24 24" id="checkmark-outline" xmlns="http://www.w3.org/2000/svg"><path d="M3.457 13.957 7.94 18.44a1.5 1.5 0 0 0 2.122 0L20.543 7.957a1 1 0 0 0 0-1.414l-1.336-1.336a1 1 0 0 0-1.414 0L9 14l-2.793-2.793a1 1 0 0 0-1.414 0l-1.336 1.336a1 1 0 0 0 0 1.414Z" stroke="currentColor" stroke-width="2" stroke-linejoin="round"/></symbol><symbol fill="none" viewBox="0 0 24 24" id="clipboard" xmlns="http://www.w3.org/2000/svg"><path d="M15 3.5h3A1.5 1.5 0 0 1 19.5 5v15.5A1.5 1.5 0 0 1 18 22H6a1.5 1.5 0 0 1-1.5-1.5V5A1.5 1.5 0 0 1 6 3.5h3" stroke="currentColor" stroke-width="2"/><rect x="9" y="1.5" width="6" height="4" rx=".75" stroke="currentColor" stroke-width="2"/></symbol><symbol fill="none" viewBox="0 0 24 24" id="clock" xmlns="http://www.w3.org/2000/svg"><circle cx="12" cy="12" r="10" stroke="currentColor" stroke-width="2"/><path d="M11.75 8v3.379c0 .398.158.779.44 1.06l3.31 3.311" stroke="currentColor" stroke-width="2" stroke-linecap="round"/></symbol><symbol fill="none" viewBox="0 0 24 24" id="close" xmlns="http://www.w3.org/2000/svg"><path d="M5 19 19 5M19 19 5 5" stroke="currentColor" stroke-width="2.125" stroke-linecap="round"/></symbol><symbol fill="none" viewBox="0 0 24 24" id="close-circle" xmlns="http://www.w3.org/2000/svg"><path d="m15.5 8.5-7 7M8.5 8.5l7 7" stroke="currentColor" stroke-width="2" stroke-linecap="round"/><circle cx="12" cy="12" r="10" stroke="currentColor" stroke-width="2"/></symbol><symbol fill="none" viewBox="0 0 24 24" id="cog" xmlns="http://www.w3.org/2000/svg"><circle cx="12" cy="12" r="3.5" stroke="currentColor" stroke-width="2"/><path d="M6.796 5.908c.182.039.371.01.532-.083l1.655-.95a.75.75 0 0 0 .34-.421l.455-1.413A1.5 1.5 0 0 1 11.206 2h1.588a1.5 1.5 0 0 1 1.428 1.04l.455 1.414a.75.75 0 0 0 .34.421l1.655.95a.75.75 0 0 0 .532.083l1.444-.312a1.5 1.5 0 0 1 1.616.716l.794 1.376a1.5 1.5 0 0 1-.188 1.757l-.962 1.062a.75.75 0 0 0-.194.503v1.98c0 .186.07.366.195.504l.961 1.061a1.5 1.5 0 0 1 .188 1.757l-.795 1.376a1.5 1.5 0 0 1-1.615.716l-1.445-.311a.75.75 0 0 0-.531.082l-1.655.95a.75.75 0 0 0-.34.42l-.455 1.414A1.5 1.5 0 0 1 12.794 22h-1.588a1.5 1.5 0 0 1-1.428-1.041l-.454-1.413a.75.75 0 0 0-.341-.42l-1.655-.95a.75.75 0 0 0-.531-.083l-1.444.311a1.5 1.5 0 0 1-1.616-.716l-.794-1.376a1.5 1.5 0 0 1 .187-1.757l.962-1.06a.75.75 0 0 0 .194-.504V11.01a.75.75 0 0 0-.195-.504l-.96-1.06a1.5 1.5 0 0 1-.188-1.758l.794-1.376a1.5 1.5 0 0 1 1.616-.716l1.443.312Z" stroke="currentColor" stroke-width="2"/></symbol><symbol fill="none" viewBox="0 0 24 24" id="copy" xmlns="http://www.w3.org/2000/svg"><path d="M2 10.5v10A1.5 1.5 0 0 0 3.5 22h10a1.5 1.5 0 0 0 1.5-1.5v-10A1.5 1.5 0 0 0 13.5 9h-10A1.5 1.5 0 0 0 2 10.5Z" stroke="currentColor" stroke-width="2" stroke-linecap="square"/><path d="M15 15h5.5a1.5 1.5 0 0 0 1.5-1.5v-10A1.5 1.5 0 0 0 20.5 2h-10A1.5 1.5 0 0 0 9 3.5V9" stroke="currentColor" stroke-width="2"/></symbol><symbol fill="none" viewBox="0 0 24 24" id="copy-file" xmlns="http://www.w3.org/2000/svg"><path d="M2 7.75V20.5A1.5 1.5 0 0 0 3.5 22h9a1.5 1.5 0 0 0 1.5-1.5v-9.629a1.5 1.5 0 0 0-.44-1.06l-3.12-3.122a1.5 1.5 0 0 0-1.061-.439H3.5A1.5 1.5 0 0 0 2 7.75Z" stroke="currentColor" stroke-width="2" stroke-linecap="square"/><path d="M14 17.75h6.5a1.5 1.5 0 0 0 1.5-1.5V6.621a1.5 1.5 0 0 0-.44-1.06l-3.12-3.122A1.5 1.5 0 0 0 17.378 2H11.5A1.5 1.5 0 0 0 10 3.5v2.75" stroke="currentColor" stroke-width="2"/></symbol><symbol fill="none" viewBox="0 0 24 24" id="download" xmlns="http://www.w3.org/2000/svg"><path d="M23 20.5H1" stroke="currentColor" stroke-width="2" stroke-linecap="round" stroke-linejoin="round"/><path d="m6 10 4.94 4.94a1.5 1.5 0 0 0 2.12 0L18 10" stroke="currentColor" stroke-width="2" stroke-linecap="round"/><path d="M12 15V2" stroke="currentColor" stroke-width="2" stroke-linecap="round" stroke-linejoin="bevel"/></symbol><symbol fill="none" viewBox="0 0 24 24" id="edit" xmlns="http://www.w3.org/2000/svg"><path d="M10.75 14h1.768a.75.75 0 0 0 .53-.22l7.657-7.657a.75.75 0 0 0 0-1.06l-1.768-1.768a.75.75 0 0 0-1.06 0l-7.657 7.657a.75.75 0 0 0-.22.53v1.768c0 .414.336.75.75.75Z" stroke="currentColor" stroke-width="2" stroke-linecap="square" stroke-linejoin="round"/><path d="M20.5 14v5a1.5 1.5 0 0 1-1.5 1.5H5A1.5 1.5 0 0 1 3.5 19V5A1.5 1.5 0 0 1 5 3.5h5" stroke="currentColor" stroke-width="2" stroke-linecap="round"/></symbol><symbol fill="none" viewBox="0 0 24 24" id="floppy" xmlns="http://www.w3.org/2000/svg"><path d="M3 4.5v15A1.5 1.5 0 0 0 4.5 21h15a1.5 1.5 0 0 0 1.5-1.5V6.455a1.5 1.5 0 0 0-.44-1.061l-1.954-1.955A1.5 1.5 0 0 0 17.546 3H4.5A1.5 1.5 0 0 0 3 4.5Z" stroke="currentColor" stroke-width="2" stroke-linecap="square" stroke-linejoin="round"/><path d="M17 21v-7.5a1.5 1.5 0 0 0-1.5-1.5h-7A1.5 1.5 0 0 0 7 13.5V21M15 3v3.5A1.5 1.5 0 0 1 13.5 8h-3A1.5 1.5 0 0 1 9 6.5V3" stroke="currentColor" stroke-width="2" stroke-linejoin="round"/></symbol><symbol fill="none" viewBox="0 0 24 24" id="fullscreen" xmlns="http://www.w3.org/2000/svg"><path d="M9 20.5H5.007a1.5 1.5 0 0 1-1.5-1.5v-4M15.004 20.5h3.992a1.5 1.5 0 0 0 1.5-1.5v-4M9 3.496H5.007a1.5 1.5 0 0 0-1.5 1.5v4M15.004 3.496h3.992a1.5 1.5 0 0 1 1.5 1.5v4" stroke="currentColor" stroke-width="2" stroke-linecap="round"/></symbol><symbol fill="none" viewBox="0 0 24 24" id="fullscreen-exit" xmlns="http://www.w3.org/2000/svg"><path d="M20.489 8.993h-3.993a1.5 1.5 0 0 1-1.5-1.5V3.5M3.504 14.996h3.992a1.5 1.5 0 0 1 1.5 1.5v4M9.004 3.511v3.993a1.5 1.5 0 0 1-1.5 1.5h-4M14.996 20.49v-3.993a1.5 1.5 0 0 1 1.5-1.5h3.993" stroke="currentColor" stroke-width="2" stroke-linecap="round" stroke-linejoin="round"/></symbol><symbol fill="none" viewBox="0 0 24 24" id="hand" xmlns="http://www.w3.org/2000/svg"><path d="M11.5 9V5.5a2 2 0 1 0-4 0V15l-2-2a1.945 1.945 0 1 0-2.75 2.75l4.493 4.493A6 6 0 0 0 11.485 22h2.04a5.975 5.975 0 0 0 5.975-5.975V6.5a2 2 0 1 0-4 0V9" stroke="currentColor" stroke-width="2" stroke-linejoin="round"/><path d="M11.5 12V4a2 2 0 1 1 4 0v8" stroke="currentColor" stroke-width="2" stroke-linecap="round"/></symbol><symbol fill="none" viewBox="0 0 24 24" id="hand-grab" xmlns="http://www.w3.org/2000/svg"><path d="M15.5 8.5v-1a2 2 0 1 1 4 0v6.515a6 6 0 0 1-1.757 4.242l-.486.486a6 6 0 0 1-4.242 1.757h-2.53a6 6 0 0 1-4.242-1.757l-.986-.986A6 6 0 0 1 3.5 13.515v-2.6A3.414 3.414 0 0 1 6.914 7.5H7.5V12" stroke="currentColor" stroke-width="2" stroke-linecap="round"/><path d="M7.5 10V6.5a2 2 0 1 1 4 0V7M15.5 9.5v-4a2 2 0 1 0-4 0V9" stroke="currentColor" stroke-width="2" stroke-linecap="round"/></symbol><symbol fill="none" viewBox="0 0 24 24" id="heart" xmlns="http://www.w3.org/2000/svg"><path d="M3.427 12.128c2.634 2.77 5.934 5.907 7.563 7.436a1.473 1.473 0 0 0 2.014.005c1.632-1.516 4.934-4.632 7.589-7.443 1.474-1.561 1.805-3.854.92-5.81-1.408-3.112-5.79-3.778-8.107-1.267l-1.411 1.53-1.427-1.547c-2.31-2.503-6.679-1.84-8.083 1.263-.89 1.965-.545 4.27.942 5.833Z" stroke="currentColor" stroke-width="2" stroke-linejoin="round"/></symbol><symbol fill="none" viewBox="0 0 24 24" id="help-circle" xmlns="http://www.w3.org/2000/svg"><path d="M12 17.25v-.5m0-3.25c0-.852.45-1.641 1.184-2.075l.548-.324a2.27 2.27 0 0 0-.781-4.193l-.471-.078a2.791 2.791 0 0 0-.959.007l-.532.097A2.453 2.453 0 0 0 9 9m13 3c0 5.523-4.477 10-10 10S2 17.523 2 12 6.477 2 12 2s10 4.477 10 10Z" stroke="currentColor" stroke-width="2" stroke-linecap="round"/></symbol><symbol fill="none" viewBox="0 0 24 24" id="help-square" xmlns="http://www.w3.org/2000/svg"><rect x="3.5" y="3.5" width="17" height="17" rx="1.5" stroke="currentColor" stroke-width="2"/><path d="M12 17.025v-.3" stroke="currentColor" stroke-width="2.125" stroke-linecap="round"/><path d="M12 13.25c0-.232.123-.447.323-.566l1.203-.71a2.49 2.49 0 0 0-.821-4.596l-.213-.038a2.75 2.75 0 0 0-.984 0l-.519.094A2.453 2.453 0 0 0 9 9.5" stroke="currentColor" stroke-width="2" stroke-linecap="round"/></symbol><symbol fill="none" viewBox="0 0 24 24" id="history" xmlns="http://www.w3.org/2000/svg"><path d="M11.75 8.5v2.879c0 .398.158.779.44 1.06L15 15.25M1.25 5.25V8.5a1.5 1.5 0 0 0 1.5 1.5h3.5" stroke="currentColor" stroke-width="2" stroke-linecap="round"/><path d="M5.203 18.717a9.54 9.54 0 0 0 6.75 2.783c5.273 0 9.547-4.253 9.547-9.5s-4.274-9.5-9.546-9.5c-3.956 0-6.428 2.1-8.704 5.611L2.331 9.5" stroke="currentColor" stroke-width="2" stroke-linecap="round"/></symbol><symbol fill="none" viewBox="0 0 24 24" id="home" xmlns="http://www.w3.org/2000/svg"><path d="M3.5 11.121V19A1.5 1.5 0 0 0 5 20.5h3.5A1.5 1.5 0 0 0 10 19v-4.25a.75.75 0 0 1 .75-.75h2.5a.75.75 0 0 1 .75.75V19a1.5 1.5 0 0 0 1.5 1.5H19a1.5 1.5 0 0 0 1.5-1.5v-7.879a1.5 1.5 0 0 0-.44-1.06l-7-7a1.5 1.5 0 0 0-2.12 0l-7 7a1.5 1.5 0 0 0-.44 1.06Z" stroke="currentColor" stroke-width="2"/></symbol><symbol fill="none" viewBox="0 0 24 24" id="hourglass" xmlns="http://www.w3.org/2000/svg"><path d="M6 22h12a1.5 1.5 0 0 0 1.5-1.5v-3.129a1.5 1.5 0 0 0-.44-1.06l-3.75-3.75a1.5 1.5 0 0 1 0-2.122l3.75-3.75a1.5 1.5 0 0 0 .44-1.06V3.5A1.5 1.5 0 0 0 18 2H6a1.5 1.5 0 0 0-1.5 1.5v2.129c0 .398.158.779.44 1.06l3.75 3.75a1.5 1.5 0 0 1 0 2.122l-3.75 3.75a1.5 1.5 0 0 0-.44 1.06V20.5A1.5 1.5 0 0 0 6 22Z" stroke="currentColor" stroke-width="2" stroke-linecap="square"/></symbol><symbol fill="none" viewBox="0 0 24 24" id="info-circle" xmlns="http://www.w3.org/2000/svg"><circle cx="12" cy="12" r="10" stroke="currentColor" stroke-width="2"/><path d="M12 16.5v-4.75M12 8.25V7.5" stroke="currentColor" stroke-width="2.25" stroke-linecap="round"/></symbol><symbol fill="none" viewBox="0 0 24 24" id="login" xmlns="http://www.w3.org/2000/svg"><path d="M14 2h5a1.5 1.5 0 0 1 1.5 1.5v17A1.5 1.5 0 0 1 19 22h-5M12 12H2M8 17l3.94-3.94a1.5 1.5 0 0 0 0-2.12L8 7" stroke="currentColor" stroke-width="2" stroke-linecap="round" stroke-linejoin="round"/></symbol><symbol fill="none" viewBox="0 0 24 24" id="logout" xmlns="http://www.w3.org/2000/svg"><path d="M10 2H5a1.5 1.5 0 0 0-1.5 1.5v17A1.5 1.5 0 0 0 5 22h5M16 17l3.94-3.94a1.5 1.5 0 0 0 0-2.12L16 7M20 12H10" stroke="currentColor" stroke-width="2" stroke-linecap="round" stroke-linejoin="round"/></symbol><symbol fill="none" viewBox="0 0 24 24" id="minus" xmlns="http://www.w3.org/2000/svg"><path d="M3.5 12h17" stroke="currentColor" stroke-width="2" stroke-linecap="round"/></symbol><symbol fill="none" viewBox="0 0 24 24" id="minus-circle" xmlns="http://www.w3.org/2000/svg"><path d="M8 12h8" stroke="currentColor" stroke-width="2" stroke-linecap="round"/><circle cx="10" cy="10" r="10" transform="matrix(1 0 0 -1 2 22)" stroke="currentColor" stroke-width="2"/></symbol><symbol fill="none" viewBox="0 0 24 24" id="paperclip" xmlns="http://www.w3.org/2000/svg"><path d="m16 6-8.586 8.586a2 2 0 0 0 0 2.828l.172.172a2 2 0 0 0 2.828 0l9.134-9.134a4.175 4.175 0 0 0 0-5.904l-.06-.06a4.225 4.225 0 0 0-5.976 0L4.17 11.83a6.25 6.25 0 0 0 0 8.838l.162.162a6.25 6.25 0 0 0 8.838 0L22 12" stroke="currentColor" stroke-width="2" stroke-linecap="round"/></symbol><symbol fill="none" viewBox="0 0 24 24" id="pencil" xmlns="http://www.w3.org/2000/svg"><path d="M5 20.5h1.879a1.5 1.5 0 0 0 1.06-.44l12.5-12.5a1.5 1.5 0 0 0 0-2.12l-1.878-1.88a1.5 1.5 0 0 0-2.122 0l-12.5 12.5a1.5 1.5 0 0 0-.439 1.061V19A1.5 1.5 0 0 0 5 20.5Z" stroke="currentColor" stroke-width="2" stroke-linecap="square" stroke-linejoin="round"/><path d="m14.75 5.25 4 4" stroke="currentColor" stroke-width="2" stroke-linejoin="round"/></symbol><symbol fill="none" viewBox="0 0 24 24" id="plus" xmlns="http://www.w3.org/2000/svg"><path d="M3.5 12h17M12 20.5v-17" stroke="currentColor" stroke-width="2" stroke-linecap="round"/></symbol><symbol fill="none" viewBox="0 0 24 24" id="plus-circle" xmlns="http://www.w3.org/2000/svg"><path d="M12 8v8M8 12h8" stroke="currentColor" stroke-width="2" stroke-linecap="round"/><circle cx="10" cy="10" r="10" transform="matrix(1 0 0 -1 2 22)" stroke="currentColor" stroke-width="2"/></symbol><symbol fill="none" viewBox="0 0 24 24" id="power-off" xmlns="http://www.w3.org/2000/svg"><path d="M12 1.875V12M4.917 4.941A9.969 9.969 0 0 0 2 12.001c0 5.522 4.477 10 10 10s10-4.478 10-10a9.969 9.969 0 0 0-2.925-7.068" stroke="currentColor" stroke-width="2" stroke-linecap="round"/></symbol><symbol fill="none" viewBox="0 0 24 24" id="refresh" xmlns="http://www.w3.org/2000/svg"><path d="M20.5 2v4A1.5 1.5 0 0 1 19 7.5h-4" stroke="currentColor" stroke-width="2" stroke-linecap="round"/><path d="M20 6.874a9.5 9.5 0 1 0 .5 9.373" stroke="currentColor" stroke-width="2" stroke-linecap="round"/></symbol><symbol fill="none" viewBox="0 0 24 24" id="search" xmlns="http://www.w3.org/2000/svg"><circle cx="9.5" cy="9.5" r="7.5" stroke="currentColor" stroke-width="2"/><path d="m21 21-6.188-6.188" stroke="currentColor" stroke-width="2" stroke-linecap="round"/></symbol><symbol fill="none" viewBox="0 0 24 24" id="share-android" xmlns="http://www.w3.org/2000/svg"><circle cx="18.25" cy="4.5" r="2.25" stroke="currentColor" stroke-width="2"/><circle cx="5.75" cy="12" r="2.25" stroke="currentColor" stroke-width="2"/><circle cx="18.25" cy="19.5" r="2.25" stroke="currentColor" stroke-width="2"/><path d="M7.625 13.125 16.5 18.45M16.375 5.625l-8.75 5.25" stroke="currentColor" stroke-width="2"/></symbol><symbol fill="none" viewBox="0 0 24 24" id="share-ios" xmlns="http://www.w3.org/2000/svg"><path d="M7 10H6a1.5 1.5 0 0 0-1.5 1.5v9A1.5 1.5 0 0 0 6 22h12a1.5 1.5 0 0 0 1.5-1.5v-9A1.5 1.5 0 0 0 18 10h-1M9 5l2.47-2.47a.75.75 0 0 1 1.06 0L15 5" stroke="currentColor" stroke-width="2" stroke-linecap="round"/><path d="M12 3v11" stroke="currentColor" stroke-width="2" stroke-linecap="round" stroke-linejoin="bevel"/></symbol><symbol fill="none" viewBox="0 0 24 24" id="sync" xmlns="http://www.w3.org/2000/svg"><path d="M3.25 22v-4a1.5 1.5 0 0 1 1.5-1.5h4M20.75 2v4a1.5 1.5 0 0 1-1.5 1.5h-4" stroke="currentColor" stroke-width="2" stroke-linecap="round"/><path d="M21.198 13c-.5 4.777-4.539 8.5-9.448 8.5-3.05 0-6.2-2.163-8-4.5m-.948-6c.5-4.777 4.539-8.5 9.448-8.5 3.107 0 6.23 2.11 8.012 4.5" stroke="currentColor" stroke-width="2" stroke-linecap="round"/></symbol><symbol fill="none" viewBox="0 0 24 24" id="tool" xmlns="http://www.w3.org/2000/svg"><path d="M2.635 6.135c-.37-.37-.995-.253-1.135.253a7 7 0 0 0 8.657 8.6c.601-.17 1.267-.064 1.708.377L18 21.5a2.475 2.475 0 1 0 3.5-3.5l-6.135-6.135c-.441-.441-.548-1.106-.378-1.707a7 7 0 0 0-8.6-8.657c-.505.139-.622.764-.252 1.134l3.25 3.25c.38.38.528.935.386 1.455l-.295 1.083a1.5 1.5 0 0 1-1.053 1.053L7.34 9.77a1.5 1.5 0 0 1-1.456-.387L2.635 6.135Z" stroke="currentColor" stroke-width="2"/></symbol><symbol fill="none" viewBox="0 0 24 24" id="trash" xmlns="http://www.w3.org/2000/svg"><path d="M10 9.5V18M14 9.5V18" stroke="currentColor" stroke-width="2" stroke-linecap="round"/><path d="m3.75 5.5 1.145 15.113A1.5 1.5 0 0 0 6.391 22h11.218a1.5 1.5 0 0 0 1.496-1.387L20.25 5.5" stroke="currentColor" stroke-width="2"/><path d="M2 5.5h20" stroke="currentColor" stroke-width="2" stroke-linecap="round"/><path d="m8.5 5.5.72-1.682A3 3 0 0 1 11.979 2h.044a3 3 0 0 1 2.757 1.818L15.5 5.5" stroke="currentColor" stroke-width="2" stroke-linejoin="round"/></symbol><symbol fill="none" viewBox="0 0 24 24" id="upload" xmlns="http://www.w3.org/2000/svg"><path d="M23 20.5H1" stroke="currentColor" stroke-width="2" stroke-linecap="round" stroke-linejoin="round"/><path d="m6 8 4.94-4.94a1.5 1.5 0 0 1 2.12 0L18 8" stroke="currentColor" stroke-width="2" stroke-linecap="round"/><path d="M12 3v13" stroke="currentColor" stroke-width="2" stroke-linecap="round" stroke-linejoin="bevel"/></symbol></svg>